<svg width="21" height="28" viewBox="0 0 21 28" fill="#18191F"
    xmlns="http://www.w3.org/2000/svg">
    <path d="M2.625 9.40625H14.4375V6.78125C14.4375 5.6875 14.0547 4.75781 13.2891 3.99219C12.5234 3.22656 11.5937 2.84375 10.5 2.84375C9.40625 2.84375 8.47656 3.22656 7.71094 3.99219C6.94531 4.75781 6.5625 5.6875 6.5625 6.78125H3.9375C3.9375 4.96562 4.57734 3.41797 5.85703 2.13828C7.13672 0.858594 8.68437 0.21875 10.5 0.21875C12.3156 0.21875 13.8633 0.858594 15.143 2.13828C16.4227 3.41797 17.0625 4.96562 17.0625 6.78125V9.40625H18.375C19.0969 9.40625 19.7148 9.66328 20.2289 10.1773C20.743 10.6914 21 11.3094 21 12.0312V25.1562C21 25.8781 20.743 26.4961 20.2289 27.0102C19.7148 27.5242 19.0969 27.7812 18.375 27.7812H2.625C1.90312 27.7812 1.28516 27.5242 0.771094 27.0102C0.257031 26.4961 0 25.8781 0 25.1562V12.0312C0 11.3094 0.257031 10.6914 0.771094 10.1773C1.28516 9.66328 1.90312 9.40625 2.625 9.40625ZM2.625 25.1562H18.375V12.0312H2.625V25.1562ZM10.5 21.2187C11.2219 21.2187 11.8398 20.9617 12.3539 20.4477C12.868 19.9336 13.125 19.3156 13.125 18.5937C13.125 17.8719 12.868 17.2539 12.3539 16.7398C11.8398 16.2258 11.2219 15.9687 10.5 15.9687C9.77812 15.9687 9.16016 16.2258 8.64609 16.7398C8.13203 17.2539 7.875 17.8719 7.875 18.5937C7.875 19.3156 8.13203 19.9336 8.64609 20.4477C9.16016 20.9617 9.77812 21.2187 10.5 21.2187Z" fill="black"/>
</svg>
